<svg width="247" height="61" viewBox="0 0 247 61" fill="none" xmlns="http://www.w3.org/2000/svg">
<path d="M0 6.1C0 2.73106 2.73106 0 6.1 0H54.9C58.2689 0 61 2.73106 61 6.1V54.9C61 58.2689 58.2689 61 54.9 61H6.1C2.73106 61 0 58.2689 0 54.9V6.1Z" fill="white"/>
<path d="M51.9952 28.7768C51.1514 28.7768 50.3686 28.6396 49.6467 28.3651C48.9351 28.0906 48.3149 27.7043 47.7862 27.2061C47.2677 26.7079 46.8611 26.1233 46.5662 25.4523C46.2816 24.7813 46.1392 24.0493 46.1392 23.2563C46.1392 22.4633 46.2816 21.7313 46.5662 21.0603C46.8611 20.3893 47.2728 19.8048 47.8015 19.3066C48.3301 18.8084 48.9503 18.4221 49.662 18.1476C50.3736 17.8731 51.1463 17.7358 51.98 17.7358C52.8238 17.7358 53.5965 17.8731 54.298 18.1476C55.0096 18.4221 55.6247 18.8084 56.1432 19.3066C56.6719 19.8048 57.0836 20.3893 57.3785 21.0603C57.6733 21.7212 57.8207 22.4532 57.8207 23.2563C57.8207 24.0493 57.6733 24.7864 57.3785 25.4676C57.0836 26.1386 56.6719 26.7232 56.1432 27.2213C55.6247 27.7093 55.0096 28.0906 54.298 28.3651C53.5965 28.6396 52.8289 28.7768 51.9952 28.7768ZM51.98 26.6723C52.4578 26.6723 52.895 26.591 53.2915 26.4283C53.6981 26.2657 54.054 26.0318 54.359 25.7268C54.664 25.4218 54.8978 25.0609 55.0605 24.6441C55.2333 24.2273 55.3197 23.7647 55.3197 23.2563C55.3197 22.748 55.2333 22.2854 55.0605 21.8686C54.8978 21.4518 54.664 21.0908 54.359 20.7858C54.0641 20.4808 53.7134 20.247 53.3067 20.0843C52.9001 19.9217 52.4578 19.8403 51.98 19.8403C51.5021 19.8403 51.0599 19.9217 50.6532 20.0843C50.2567 20.247 49.906 20.4808 49.601 20.7858C49.296 21.0908 49.0571 21.4518 48.8842 21.8686C48.7216 22.2854 48.6402 22.748 48.6402 23.2563C48.6402 23.7545 48.7216 24.2171 48.8842 24.6441C49.0571 25.0609 49.2909 25.4218 49.5857 25.7268C49.8907 26.0318 50.2466 26.2657 50.6532 26.4283C51.0599 26.591 51.5021 26.6723 51.98 26.6723Z" fill="#5B7BA5"/>
<path d="M35.5961 28.5939V17.9189H40.2168C41.1725 17.9189 41.996 18.0765 42.6874 18.3917C43.3787 18.6967 43.9124 19.1389 44.2886 19.7184C44.6648 20.2979 44.8529 20.9893 44.8529 21.7924C44.8529 22.5854 44.6648 23.2717 44.2886 23.8512C43.9124 24.4205 43.3787 24.8577 42.6874 25.1627C41.996 25.4677 41.1725 25.6202 40.2168 25.6202H36.9686L38.0666 24.5374V28.5939H35.5961ZM42.3823 28.5939L39.7136 24.7204H42.3519L45.0511 28.5939H42.3823ZM38.0666 24.8119L36.9686 23.6529H40.0796C40.8421 23.6529 41.4114 23.4903 41.7876 23.1649C42.1638 22.8294 42.3519 22.3719 42.3519 21.7924C42.3519 21.2028 42.1638 20.7453 41.7876 20.4199C41.4114 20.0946 40.8421 19.9319 40.0796 19.9319H36.9686L38.0666 18.7577V24.8119Z" fill="#5B7BA5"/>
<path d="M22.997 28.5939V17.9189H27.8465C29.0055 17.9189 30.0272 18.1426 30.9117 18.5899C31.7962 19.0271 32.4876 19.6422 32.9857 20.4352C33.4839 21.2282 33.733 22.1686 33.733 23.2564C33.733 24.3341 33.4839 25.2745 32.9857 26.0777C32.4876 26.8707 31.7962 27.4909 30.9117 27.9382C30.0272 28.3754 29.0055 28.5939 27.8465 28.5939H22.997ZM25.4675 26.5657H27.7245C28.4361 26.5657 29.0512 26.4335 29.5697 26.1692C30.0984 25.8947 30.5051 25.5084 30.7897 25.0102C31.0846 24.512 31.232 23.9274 31.232 23.2564C31.232 22.5753 31.0846 21.9907 30.7897 21.5027C30.5051 21.0045 30.0984 20.6233 29.5697 20.3589C29.0512 20.0844 28.4361 19.9472 27.7245 19.9472H25.4675V26.5657Z" fill="#5B7BA5"/>
<path d="M11.2545 17.9189H13.725V28.5939H11.2545V17.9189ZM6.40499 28.5939H3.93449V17.9189H6.40499V28.5939ZM11.4375 24.2172H6.22199V22.1279H11.4375V24.2172Z" fill="#5B7BA5"/>
<path d="M18.5011 18.3003C18.5011 18.3003 22.8324 24.7967 21.4639 27.159C20.0955 29.5214 16.9752 29.6395 15.5384 27.159C14.1015 24.6786 18.5011 18.3003 18.5011 18.3003Z" fill="#B3CBE5"/>
<path d="M44.5909 36.7068H49.7302V38.6283H44.5909V36.7068ZM44.7739 41.0988H50.5842V43.0813H42.3187V32.4062H50.3859V34.3887H44.7739V41.0988Z" fill="#5B7BA5"/>
<path d="M34.8664 37.21H39.9904V39.1925H34.8664V37.21ZM35.0494 43.0813H32.5789V32.4062H40.6461V34.3887H35.0494V43.0813Z" fill="#5B7BA5"/>
<path d="M19.5001 43.0813L24.2581 32.4062H26.6981L31.4713 43.0813H28.8788L24.9748 33.6568H25.9508L22.0316 43.0813H19.5001ZM21.8791 40.7938L22.5348 38.918H28.0248L28.6958 40.7938H21.8791Z" fill="#5B7BA5"/>
<path d="M14.6857 43.2641C13.8317 43.2641 13.0133 43.1523 12.2305 42.9286C11.4477 42.6948 10.8173 42.3949 10.3395 42.0289L11.1782 40.1684C11.6357 40.4937 12.1746 40.7631 12.7947 40.9766C13.4251 41.18 14.0605 41.2816 14.701 41.2816C15.189 41.2816 15.5804 41.2359 15.8752 41.1444C16.1802 41.0427 16.4039 40.9055 16.5462 40.7326C16.6886 40.5598 16.7597 40.3616 16.7597 40.1379C16.7597 39.8532 16.6479 39.6296 16.4242 39.4669C16.2006 39.2941 15.9057 39.1568 15.5397 39.0551C15.1737 38.9433 14.7671 38.8416 14.3197 38.7501C13.8826 38.6485 13.4403 38.5265 12.993 38.3841C12.5558 38.2418 12.1542 38.0588 11.7882 37.8351C11.4222 37.6115 11.1223 37.3166 10.8885 36.9506C10.6648 36.5846 10.553 36.117 10.553 35.5476C10.553 34.9376 10.7157 34.3836 11.041 33.8854C11.3765 33.3771 11.8747 32.9755 12.5355 32.6806C13.2065 32.3756 14.0452 32.2231 15.0517 32.2231C15.7227 32.2231 16.3836 32.3045 17.0342 32.4671C17.6849 32.6196 18.2593 32.8535 18.7575 33.1686L17.995 35.0444C17.4968 34.7597 16.9987 34.5513 16.5005 34.4191C16.0023 34.2768 15.5143 34.2056 15.0365 34.2056C14.5587 34.2056 14.1672 34.2616 13.8622 34.3734C13.5572 34.4852 13.3387 34.6326 13.2065 34.8156C13.0743 34.9885 13.0082 35.1918 13.0082 35.4256C13.0082 35.7001 13.1201 35.9238 13.3437 36.0966C13.5674 36.2593 13.8622 36.3915 14.2282 36.4931C14.5942 36.5948 14.9958 36.6965 15.433 36.7981C15.8803 36.8998 16.3226 37.0167 16.7597 37.1489C17.2071 37.2811 17.6137 37.459 17.9797 37.6826C18.3457 37.9063 18.6406 38.2011 18.8642 38.5671C19.0981 38.9331 19.215 39.3957 19.215 39.9549C19.215 40.5547 19.0472 41.1037 18.7117 41.6019C18.3762 42.1001 17.873 42.5016 17.202 42.8066C16.5412 43.1116 15.7024 43.2641 14.6857 43.2641Z" fill="#5B7BA5"/>
<path d="M237.309 44.201C235.223 44.201 233.387 43.7929 231.799 42.9767C230.235 42.1604 229.022 41.0495 228.16 39.6437C227.299 38.2153 226.868 36.5942 226.868 34.7803C226.868 32.9438 227.287 31.3227 228.126 29.9169C228.988 28.4885 230.156 27.3775 231.629 26.584C233.103 25.7677 234.77 25.3596 236.629 25.3596C238.42 25.3596 240.03 25.7451 241.458 26.516C242.909 27.2642 244.054 28.3525 244.893 29.7809C245.732 31.1866 246.152 32.8758 246.152 34.8483C246.152 35.0524 246.14 35.2905 246.118 35.5626C246.095 35.812 246.072 36.05 246.05 36.2768H231.187V33.1819H243.261L241.22 34.1001C241.22 33.1479 241.027 32.3203 240.642 31.6174C240.257 30.9145 239.724 30.3704 239.044 29.9849C238.363 29.5768 237.57 29.3728 236.663 29.3728C235.756 29.3728 234.951 29.5768 234.248 29.9849C233.568 30.3704 233.035 30.9259 232.65 31.6514C232.264 32.3543 232.072 33.1932 232.072 34.1682V34.9844C232.072 35.982 232.287 36.8663 232.718 37.6371C233.171 38.3854 233.795 38.9635 234.588 39.3716C235.405 39.7571 236.357 39.9498 237.445 39.9498C238.42 39.9498 239.27 39.8024 239.996 39.5077C240.744 39.2129 241.424 38.7708 242.036 38.1813L244.859 41.2422C244.02 42.1945 242.966 42.9313 241.696 43.4528C240.427 43.9516 238.964 44.201 237.309 44.201Z" fill="white"/>
<path d="M215.955 43.929V25.2236C215.955 23.1603 216.567 21.5165 217.791 20.2922C219.016 19.0451 220.762 18.4216 223.029 18.4216C223.8 18.4216 224.537 18.501 225.24 18.6597C225.965 18.8184 226.577 19.0678 227.076 19.4079L225.682 23.251C225.387 23.047 225.058 22.8882 224.695 22.7749C224.333 22.6615 223.947 22.6048 223.539 22.6048C222.768 22.6048 222.167 22.8316 221.737 23.285C221.328 23.7158 221.124 24.3733 221.124 25.2576V26.9581L221.26 29.2367V43.929H215.955ZM213.132 30.121V26.0398H225.818V30.121H213.132Z" fill="white"/>
<path d="M205.542 43.929V40.3579L205.201 39.5757V33.1819C205.201 32.0482 204.85 31.164 204.147 30.5291C203.467 29.8943 202.413 29.5768 200.984 29.5768C200.009 29.5768 199.046 29.7355 198.093 30.053C197.164 30.3477 196.37 30.7558 195.713 31.2773L193.808 27.5703C194.806 26.8674 196.007 26.3232 197.413 25.9378C198.819 25.5523 200.247 25.3596 201.698 25.3596C204.487 25.3596 206.653 26.0171 208.194 27.3322C209.736 28.6472 210.507 30.6992 210.507 33.488V43.929H205.542ZM199.964 44.201C198.536 44.201 197.311 43.963 196.291 43.4868C195.271 42.988 194.488 42.3192 193.944 41.4803C193.4 40.6413 193.128 39.7004 193.128 38.6574C193.128 37.5691 193.389 36.6169 193.91 35.8006C194.454 34.9844 195.305 34.3495 196.461 33.8961C197.617 33.4199 199.125 33.1819 200.984 33.1819H205.848V36.2768H201.562C200.315 36.2768 199.454 36.4808 198.978 36.8889C198.524 37.297 198.297 37.8072 198.297 38.4194C198.297 39.0996 198.558 39.6437 199.08 40.0518C199.624 40.4373 200.361 40.63 201.29 40.63C202.175 40.63 202.968 40.4259 203.671 40.0178C204.374 39.587 204.884 38.9635 205.201 38.1473L206.018 40.596C205.632 41.775 204.929 42.6706 203.909 43.2828C202.889 43.8949 201.574 44.201 199.964 44.201Z" fill="white"/>
<path d="M180.827 44.3374C178.922 44.3374 177.097 44.088 175.351 43.5892C173.605 43.0677 172.2 42.3989 171.134 41.5826L173.005 37.4334C174.025 38.159 175.227 38.7598 176.61 39.236C178.015 39.6894 179.432 39.9162 180.861 39.9162C181.949 39.9162 182.822 39.8141 183.48 39.6101C184.16 39.3833 184.659 39.0773 184.976 38.6918C185.293 38.3064 185.452 37.8642 185.452 37.3654C185.452 36.7306 185.203 36.2318 184.704 35.869C184.205 35.4836 183.548 35.1775 182.731 34.9507C181.915 34.7013 181.008 34.4746 180.011 34.2705C179.036 34.0438 178.049 33.7717 177.052 33.4543C176.077 33.1369 175.181 32.7288 174.365 32.23C173.549 31.7311 172.88 31.0736 172.358 30.2574C171.86 29.4412 171.61 28.3982 171.61 27.1285C171.61 25.7681 171.973 24.5324 172.698 23.4214C173.447 22.2878 174.558 21.3922 176.031 20.7346C177.528 20.0545 179.398 19.7144 181.643 19.7144C183.139 19.7144 184.613 19.8957 186.064 20.2585C187.515 20.5986 188.796 21.1201 189.907 21.823L188.207 26.0062C187.096 25.3713 185.985 24.9065 184.874 24.6118C183.763 24.2943 182.675 24.1356 181.609 24.1356C180.543 24.1356 179.67 24.2603 178.99 24.5097C178.31 24.7591 177.823 25.0879 177.528 25.496C177.233 25.8815 177.086 26.3349 177.086 26.8564C177.086 27.4686 177.335 27.9674 177.834 28.3528C178.333 28.7156 178.99 29.0104 179.806 29.2371C180.623 29.4638 181.518 29.6906 182.493 29.9173C183.491 30.144 184.477 30.4048 185.452 30.6995C186.45 30.9943 187.357 31.391 188.173 31.8899C188.989 32.3887 189.647 33.0462 190.145 33.8624C190.667 34.6787 190.928 35.7103 190.928 36.9573C190.928 38.295 190.554 39.5194 189.805 40.6304C189.057 41.7414 187.935 42.6369 186.438 43.3171C184.965 43.9973 183.094 44.3374 180.827 44.3374Z" fill="white"/>
<path d="M159.051 44.201C157.101 44.201 155.367 43.7929 153.848 42.9767C152.351 42.1604 151.161 41.0495 150.277 39.6437C149.415 38.2153 148.984 36.5942 148.984 34.7803C148.984 32.9438 149.415 31.3227 150.277 29.9169C151.161 28.4885 152.351 27.3775 153.848 26.584C155.367 25.7677 157.101 25.3596 159.051 25.3596C160.978 25.3596 162.702 25.7677 164.221 26.584C165.74 27.3775 166.93 28.4772 167.792 29.8829C168.653 31.2887 169.084 32.9211 169.084 34.7803C169.084 36.5942 168.653 38.2153 167.792 39.6437C166.93 41.0495 165.74 42.1604 164.221 42.9767C162.702 43.7929 160.978 44.201 159.051 44.201ZM159.051 39.8478C159.935 39.8478 160.729 39.6437 161.432 39.2356C162.135 38.8275 162.69 38.2493 163.098 37.5011C163.507 36.7302 163.711 35.8233 163.711 34.7803C163.711 33.7147 163.507 32.8078 163.098 32.0595C162.69 31.3113 162.135 30.7332 161.432 30.325C160.729 29.9169 159.935 29.7129 159.051 29.7129C158.167 29.7129 157.373 29.9169 156.671 30.325C155.968 30.7332 155.401 31.3113 154.97 32.0595C154.562 32.8078 154.358 33.7147 154.358 34.7803C154.358 35.8233 154.562 36.7302 154.97 37.5011C155.401 38.2493 155.968 38.8275 156.671 39.2356C157.373 39.6437 158.167 39.8478 159.051 39.8478Z" fill="white"/>
<path d="M135.964 43.929V25.6317H141.031V30.8012L140.317 29.3048C140.861 28.0124 141.734 27.0374 142.936 26.3799C144.137 25.6997 145.6 25.3596 147.323 25.3596V30.257C147.096 30.2344 146.892 30.223 146.711 30.223C146.529 30.2003 146.337 30.189 146.133 30.189C144.681 30.189 143.502 30.6085 142.596 31.4474C141.711 32.2636 141.269 33.5446 141.269 35.2905V43.929H135.964Z" fill="white"/>
<path d="M120.272 44.2009C118.549 44.2009 116.996 43.8155 115.613 43.0446C114.23 42.251 113.13 41.1514 112.314 39.7457C111.52 38.3399 111.123 36.6848 111.123 34.7802C111.123 32.853 111.52 31.1865 112.314 29.7808C113.13 28.3751 114.23 27.2867 115.613 26.5159C116.996 25.745 118.549 25.3595 120.272 25.3595C121.814 25.3595 123.163 25.6996 124.319 26.3798C125.476 27.06 126.371 28.0916 127.006 29.4747C127.641 30.8578 127.958 32.6263 127.958 34.7802C127.958 36.9115 127.652 38.68 127.04 40.0858C126.428 41.4688 125.544 42.5004 124.387 43.1806C123.254 43.8608 121.882 44.2009 120.272 44.2009ZM121.19 39.8477C122.052 39.8477 122.834 39.6436 123.537 39.2355C124.24 38.8274 124.795 38.2492 125.203 37.501C125.634 36.7301 125.85 35.8232 125.85 34.7802C125.85 33.7146 125.634 32.8077 125.203 32.0594C124.795 31.3112 124.24 30.7331 123.537 30.3249C122.834 29.9168 122.052 29.7128 121.19 29.7128C120.306 29.7128 119.513 29.9168 118.81 30.3249C118.107 30.7331 117.54 31.3112 117.109 32.0594C116.701 32.8077 116.497 33.7146 116.497 34.7802C116.497 35.8232 116.701 36.7301 117.109 37.501C117.54 38.2492 118.107 38.8274 118.81 39.2355C119.513 39.6436 120.306 39.8477 121.19 39.8477ZM125.986 43.9289V40.1878L126.088 34.7462L125.748 29.3387V18.6936H131.053V43.9289H125.986Z" fill="white"/>
<path d="M102.186 43.9288V25.6315H107.492V43.9288H102.186ZM104.839 23.0808C103.864 23.0808 103.071 22.7974 102.458 22.2305C101.846 21.6637 101.54 20.9608 101.54 20.1219C101.54 19.283 101.846 18.5802 102.458 18.0133C103.071 17.4465 103.864 17.1631 104.839 17.1631C105.814 17.1631 106.608 17.4352 107.22 17.9793C107.832 18.5008 108.138 19.181 108.138 20.0199C108.138 20.9042 107.832 21.641 107.22 22.2305C106.63 22.7974 105.837 23.0808 104.839 23.0808Z" fill="white"/>
<path d="M91.4183 20.1226H96.9279V43.9294H91.4183V20.1226ZM80.6032 43.9294H75.0936V20.1226H80.6032V43.9294ZM91.8264 34.1686H80.1951V29.5093H91.8264V34.1686Z" fill="white"/>
</svg>
