<svg width="175" height="44" viewBox="0 0 175 44" fill="none" xmlns="http://www.w3.org/2000/svg">
<path d="M0 4.30465C0 1.92726 1.92726 0 4.30464 0H38.7418C41.1192 0 43.0464 1.92726 43.0464 4.30464V38.7418C43.0464 41.1192 41.1192 43.0464 38.7418 43.0464H4.30465C1.92726 43.0464 0 41.1192 0 38.7418V4.30465Z" fill="#5B7BA5"/>
<path d="M36.692 20.3072C36.0965 20.3072 35.544 20.2103 35.0347 20.0166C34.5325 19.8229 34.0948 19.5503 33.7217 19.1987C33.3559 18.8472 33.0689 18.4346 32.8608 17.9611C32.6599 17.4876 32.5595 16.9711 32.5595 16.4115C32.5595 15.8518 32.6599 15.3353 32.8608 14.8618C33.0689 14.3883 33.3594 13.9757 33.7325 13.6242C34.1056 13.2726 34.5432 13 35.0454 12.8063C35.5476 12.6126 36.0929 12.5157 36.6812 12.5157C37.2767 12.5157 37.8219 12.6126 38.317 12.8063C38.8192 13 39.2532 13.2726 39.6191 13.6242C39.9922 13.9757 40.2827 14.3883 40.4908 14.8618C40.6989 15.3281 40.8029 15.8447 40.8029 16.4115C40.8029 16.9711 40.6989 17.4912 40.4908 17.9719C40.2827 18.4454 39.9922 18.8579 39.6191 19.2095C39.2532 19.5538 38.8192 19.8229 38.317 20.0166C37.8219 20.2103 37.2803 20.3072 36.692 20.3072ZM36.6812 18.8221C37.0184 18.8221 37.3269 18.7647 37.6067 18.6499C37.8937 18.5351 38.1448 18.3701 38.36 18.1548C38.5752 17.9396 38.7402 17.6849 38.855 17.3908C38.977 17.0966 39.038 16.7702 39.038 16.4115C39.038 16.0527 38.977 15.7263 38.855 15.4321C38.7402 15.138 38.5752 14.8833 38.36 14.6681C38.1519 14.4528 37.9044 14.2878 37.6175 14.173C37.3305 14.0582 37.0184 14.0008 36.6812 14.0008C36.344 14.0008 36.0319 14.0582 35.7449 14.173C35.4651 14.2878 35.2176 14.4528 35.0024 14.6681C34.7871 14.8833 34.6186 15.138 34.4966 15.4321C34.3818 15.7263 34.3244 16.0527 34.3244 16.4115C34.3244 16.763 34.3818 17.0894 34.4966 17.3908C34.6186 17.6849 34.7836 17.9396 34.9916 18.1548C35.2069 18.3701 35.458 18.5351 35.7449 18.6499C36.0319 18.7647 36.344 18.8221 36.6812 18.8221Z" fill="white"/>
<path d="M25.1194 20.178V12.6449H28.3802C29.0546 12.6449 29.6357 12.7561 30.1236 12.9785C30.6115 13.1937 30.9881 13.5058 31.2536 13.9148C31.519 14.3237 31.6517 14.8116 31.6517 15.3783C31.6517 15.938 31.519 16.4222 31.2536 16.8312C30.9881 17.2329 30.6115 17.5414 30.1236 17.7567C29.6357 17.9719 29.0546 18.0795 28.3802 18.0795H26.088L26.8628 17.3154V20.178H25.1194ZM29.9084 20.178L28.0251 17.4446H29.8868L31.7916 20.178H29.9084ZM26.8628 17.5091L26.088 16.6913H28.2834C28.8214 16.6913 29.2232 16.5765 29.4887 16.3469C29.7541 16.1101 29.8868 15.7873 29.8868 15.3783C29.8868 14.9622 29.7541 14.6394 29.4887 14.4098C29.2232 14.1802 28.8214 14.0654 28.2834 14.0654H26.088L26.8628 13.2368V17.5091Z" fill="white"/>
<path d="M16.2285 20.178V12.6449H19.6507C20.4686 12.6449 21.1896 12.8027 21.8138 13.1184C22.438 13.4269 22.9258 13.861 23.2774 14.4206C23.6289 14.9802 23.8047 15.6438 23.8047 16.4115C23.8047 17.1719 23.6289 17.8356 23.2774 18.4024C22.9258 18.962 22.438 19.3996 21.8138 19.7153C21.1896 20.0238 20.4686 20.178 19.6507 20.178H16.2285ZM17.9719 18.7467H19.5646C20.0668 18.7467 20.5009 18.6535 20.8668 18.4669C21.2398 18.2732 21.5268 18.0006 21.7277 17.649C21.9357 17.2975 22.0398 16.885 22.0398 16.4115C22.0398 15.9308 21.9357 15.5182 21.7277 15.1739C21.5268 14.8223 21.2398 14.5533 20.8668 14.3668C20.5009 14.173 20.0668 14.0762 19.5646 14.0762H17.9719V18.7467Z" fill="white"/>
<path d="M7.94206 12.6449H9.68544V20.178H7.94206V12.6449ZM4.51987 20.178H2.77649V12.6449H4.51987V20.178ZM8.0712 17.0894H4.39073V15.6151H8.0712V17.0894Z" fill="white"/>
<path d="M13.0559 12.9139C13.0559 12.9139 16.1123 17.4983 15.1467 19.1653C14.181 20.8323 11.9791 20.9157 10.9651 19.1653C9.95113 17.4149 13.0559 12.9139 13.0559 12.9139Z" fill="#B3CBE5"/>
<path d="M31.4669 25.9032H35.0935V27.2591H31.4669V25.9032ZM31.596 29.0025H35.6962V30.4015H29.8634V22.8684H35.5563V24.2674H31.596V29.0025Z" fill="white"/>
<path d="M24.6045 26.2583H28.2204V27.6573H24.6045V26.2583ZM24.7336 30.4015H22.9902V22.8684H28.6831V24.2674H24.7336V30.4015Z" fill="white"/>
<path d="M13.7608 30.4015L17.1184 22.8684H18.8403L22.2087 30.4015H20.3792L17.6242 23.7509H18.313L15.5472 30.4015H13.7608ZM15.4396 28.7873L15.9024 27.4636H19.7766L20.2501 28.7873H15.4396Z" fill="white"/>
<path d="M10.3634 30.5307C9.76078 30.5307 9.18324 30.4517 8.63081 30.2939C8.07838 30.1289 7.63357 29.9173 7.29637 29.659L7.88826 28.3461C8.21111 28.5756 8.59135 28.7658 9.02899 28.9164C9.4738 29.0599 9.92221 29.1317 10.3742 29.1317C10.7186 29.1317 10.9948 29.0994 11.2028 29.0348C11.4181 28.9631 11.5759 28.8662 11.6763 28.7442C11.7768 28.6223 11.827 28.4824 11.827 28.3245C11.827 28.1237 11.7481 27.9658 11.5903 27.851C11.4324 27.7291 11.2244 27.6322 10.9661 27.5605C10.7078 27.4815 10.4208 27.4098 10.1052 27.3452C9.79665 27.2735 9.48457 27.1874 9.16889 27.0869C8.86039 26.9865 8.577 26.8574 8.31872 26.6995C8.06045 26.5417 7.8488 26.3336 7.68379 26.0754C7.52595 25.8171 7.44703 25.4871 7.44703 25.0853C7.44703 24.6548 7.56182 24.2638 7.79141 23.9123C8.02816 23.5536 8.37971 23.2702 8.84604 23.0621C9.31955 22.8469 9.91144 22.7393 10.6217 22.7393C11.0952 22.7393 11.5616 22.7967 12.0207 22.9114C12.4799 23.0191 12.8852 23.1841 13.2368 23.4065L12.6987 24.7302C12.3472 24.5293 11.9956 24.3822 11.6441 24.2889C11.2925 24.1885 10.9481 24.1383 10.6109 24.1383C10.2738 24.1383 9.99754 24.1777 9.7823 24.2566C9.56707 24.3356 9.41282 24.4396 9.31955 24.5687C9.22629 24.6907 9.17965 24.8342 9.17965 24.9992C9.17965 25.1929 9.25857 25.3507 9.41641 25.4727C9.57425 25.5875 9.7823 25.6808 10.0406 25.7525C10.2989 25.8243 10.5823 25.896 10.8908 25.9677C11.2064 26.0395 11.5185 26.122 11.827 26.2153C12.1427 26.3085 12.4297 26.4341 12.6879 26.5919C12.9462 26.7498 13.1543 26.9578 13.3121 27.2161C13.4771 27.4744 13.5596 27.8008 13.5596 28.1954C13.5596 28.6187 13.4413 29.0061 13.2045 29.3576C12.9677 29.7092 12.6126 29.9926 12.1391 30.2078C11.6728 30.423 11.0809 30.5307 10.3634 30.5307Z" fill="white"/>
<path d="M64.512 14.2H68.4V31H64.512V14.2ZM56.88 31H52.992V14.2H56.88V31ZM64.8 24.112H56.592V20.824H64.8V24.112ZM72.1108 31V18.088H75.8548V31H72.1108ZM73.9828 16.288C73.2948 16.288 72.7348 16.088 72.3028 15.688C71.8708 15.288 71.6548 14.792 71.6548 14.2C71.6548 13.608 71.8708 13.112 72.3028 12.712C72.7348 12.312 73.2948 12.112 73.9828 12.112C74.6708 12.112 75.2308 12.304 75.6628 12.688C76.0948 13.056 76.3108 13.536 76.3108 14.128C76.3108 14.752 76.0948 15.272 75.6628 15.688C75.2468 16.088 74.6868 16.288 73.9828 16.288ZM84.8736 31.192C83.6576 31.192 82.5616 30.92 81.5856 30.376C80.6096 29.816 79.8336 29.04 79.2576 28.048C78.6976 27.056 78.4176 25.888 78.4176 24.544C78.4176 23.184 78.6976 22.008 79.2576 21.016C79.8336 20.024 80.6096 19.256 81.5856 18.712C82.5616 18.168 83.6576 17.896 84.8736 17.896C85.9616 17.896 86.9136 18.136 87.7296 18.616C88.5456 19.096 89.1776 19.824 89.6256 20.8C90.0736 21.776 90.2976 23.024 90.2976 24.544C90.2976 26.048 90.0816 27.296 89.6496 28.288C89.2176 29.264 88.5936 29.992 87.7776 30.472C86.9776 30.952 86.0096 31.192 84.8736 31.192ZM85.5216 28.12C86.1296 28.12 86.6816 27.976 87.1776 27.688C87.6736 27.4 88.0656 26.992 88.3536 26.464C88.6576 25.92 88.8096 25.28 88.8096 24.544C88.8096 23.792 88.6576 23.152 88.3536 22.624C88.0656 22.096 87.6736 21.688 87.1776 21.4C86.6816 21.112 86.1296 20.968 85.5216 20.968C84.8976 20.968 84.3376 21.112 83.8416 21.4C83.3456 21.688 82.9456 22.096 82.6416 22.624C82.3536 23.152 82.2096 23.792 82.2096 24.544C82.2096 25.28 82.3536 25.92 82.6416 26.464C82.9456 26.992 83.3456 27.4 83.8416 27.688C84.3376 27.976 84.8976 28.12 85.5216 28.12ZM88.9056 31V28.36L88.9776 24.52L88.7376 20.704V13.192H92.4816V31H88.9056ZM95.9468 31V18.088H99.5228V21.736L99.0188 20.68C99.4028 19.768 100.019 19.08 100.867 18.616C101.715 18.136 102.747 17.896 103.963 17.896V21.352C103.803 21.336 103.659 21.328 103.531 21.328C103.403 21.312 103.267 21.304 103.123 21.304C102.099 21.304 101.267 21.6 100.627 22.192C100.003 22.768 99.6908 23.672 99.6908 24.904V31H95.9468ZM112.239 31.192C110.863 31.192 109.639 30.904 108.567 30.328C107.511 29.752 106.671 28.968 106.047 27.976C105.439 26.968 105.135 25.824 105.135 24.544C105.135 23.248 105.439 22.104 106.047 21.112C106.671 20.104 107.511 19.32 108.567 18.76C109.639 18.184 110.863 17.896 112.239 17.896C113.599 17.896 114.815 18.184 115.887 18.76C116.959 19.32 117.799 20.096 118.407 21.088C119.015 22.08 119.319 23.232 119.319 24.544C119.319 25.824 119.015 26.968 118.407 27.976C117.799 28.968 116.959 29.752 115.887 30.328C114.815 30.904 113.599 31.192 112.239 31.192ZM112.239 28.12C112.863 28.12 113.423 27.976 113.919 27.688C114.415 27.4 114.807 26.992 115.095 26.464C115.383 25.92 115.527 25.28 115.527 24.544C115.527 23.792 115.383 23.152 115.095 22.624C114.807 22.096 114.415 21.688 113.919 21.4C113.423 21.112 112.863 20.968 112.239 20.968C111.615 20.968 111.055 21.112 110.559 21.4C110.063 21.688 109.663 22.096 109.359 22.624C109.071 23.152 108.927 23.792 108.927 24.544C108.927 25.28 109.071 25.92 109.359 26.464C109.663 26.992 110.063 27.4 110.559 27.688C111.055 27.976 111.615 28.12 112.239 28.12ZM127.606 31.288C126.262 31.288 124.974 31.112 123.742 30.76C122.51 30.392 121.518 29.92 120.766 29.344L122.086 26.416C122.806 26.928 123.654 27.352 124.63 27.688C125.622 28.008 126.622 28.168 127.63 28.168C128.398 28.168 129.014 28.096 129.478 27.952C129.958 27.792 130.31 27.576 130.534 27.304C130.758 27.032 130.87 26.72 130.87 26.368C130.87 25.92 130.694 25.568 130.342 25.312C129.99 25.04 129.526 24.824 128.95 24.664C128.374 24.488 127.734 24.328 127.03 24.184C126.342 24.024 125.646 23.832 124.942 23.608C124.254 23.384 123.622 23.096 123.046 22.744C122.47 22.392 121.998 21.928 121.63 21.352C121.278 20.776 121.102 20.04 121.102 19.144C121.102 18.184 121.358 17.312 121.87 16.528C122.398 15.728 123.182 15.096 124.222 14.632C125.278 14.152 126.598 13.912 128.182 13.912C129.238 13.912 130.278 14.04 131.302 14.296C132.326 14.536 133.23 14.904 134.014 15.4L132.814 18.352C132.03 17.904 131.246 17.576 130.462 17.368C129.678 17.144 128.91 17.032 128.158 17.032C127.406 17.032 126.79 17.12 126.31 17.296C125.83 17.472 125.486 17.704 125.278 17.992C125.07 18.264 124.966 18.584 124.966 18.952C124.966 19.384 125.142 19.736 125.494 20.008C125.846 20.264 126.31 20.472 126.886 20.632C127.462 20.792 128.094 20.952 128.782 21.112C129.486 21.272 130.182 21.456 130.87 21.664C131.574 21.872 132.214 22.152 132.79 22.504C133.366 22.856 133.83 23.32 134.182 23.896C134.55 24.472 134.734 25.2 134.734 26.08C134.734 27.024 134.47 27.888 133.942 28.672C133.414 29.456 132.622 30.088 131.566 30.568C130.526 31.048 129.206 31.288 127.606 31.288ZM145.046 31V28.48L144.806 27.928V23.416C144.806 22.616 144.558 21.992 144.062 21.544C143.582 21.096 142.838 20.872 141.83 20.872C141.142 20.872 140.462 20.984 139.79 21.208C139.134 21.416 138.574 21.704 138.11 22.072L136.766 19.456C137.47 18.96 138.318 18.576 139.31 18.304C140.302 18.032 141.31 17.896 142.334 17.896C144.302 17.896 145.83 18.36 146.918 19.288C148.006 20.216 148.55 21.664 148.55 23.632V31H145.046ZM141.11 31.192C140.102 31.192 139.238 31.024 138.518 30.688C137.798 30.336 137.246 29.864 136.862 29.272C136.478 28.68 136.286 28.016 136.286 27.28C136.286 26.512 136.47 25.84 136.838 25.264C137.222 24.688 137.822 24.24 138.638 23.92C139.454 23.584 140.518 23.416 141.83 23.416H145.262V25.6H142.238C141.358 25.6 140.75 25.744 140.414 26.032C140.094 26.32 139.934 26.68 139.934 27.112C139.934 27.592 140.118 27.976 140.486 28.264C140.87 28.536 141.39 28.672 142.046 28.672C142.67 28.672 143.23 28.528 143.726 28.24C144.222 27.936 144.582 27.496 144.806 26.92L145.382 28.648C145.11 29.48 144.614 30.112 143.894 30.544C143.174 30.976 142.246 31.192 141.11 31.192ZM152.395 31V17.8C152.395 16.344 152.827 15.184 153.691 14.32C154.555 13.44 155.787 13 157.387 13C157.931 13 158.451 13.056 158.947 13.168C159.459 13.28 159.891 13.456 160.243 13.696L159.259 16.408C159.051 16.264 158.819 16.152 158.563 16.072C158.307 15.992 158.035 15.952 157.747 15.952C157.203 15.952 156.779 16.112 156.475 16.432C156.187 16.736 156.043 17.2 156.043 17.824V19.024L156.139 20.632V31H152.395ZM150.403 21.256V18.376H159.355V21.256H150.403ZM167.464 31.192C165.992 31.192 164.696 30.904 163.576 30.328C162.472 29.752 161.616 28.968 161.008 27.976C160.4 26.968 160.096 25.824 160.096 24.544C160.096 23.248 160.392 22.104 160.984 21.112C161.592 20.104 162.416 19.32 163.456 18.76C164.496 18.184 165.672 17.896 166.984 17.896C168.248 17.896 169.384 18.168 170.392 18.712C171.416 19.24 172.224 20.008 172.816 21.016C173.408 22.008 173.704 23.2 173.704 24.592C173.704 24.736 173.696 24.904 173.68 25.096C173.664 25.272 173.648 25.44 173.632 25.6H163.144V23.416H171.664L170.224 24.064C170.224 23.392 170.088 22.808 169.816 22.312C169.544 21.816 169.168 21.432 168.688 21.16C168.208 20.872 167.648 20.728 167.008 20.728C166.368 20.728 165.8 20.872 165.304 21.16C164.824 21.432 164.448 21.824 164.176 22.336C163.904 22.832 163.768 23.424 163.768 24.112V24.688C163.768 25.392 163.92 26.016 164.224 26.56C164.544 27.088 164.984 27.496 165.544 27.784C166.12 28.056 166.792 28.192 167.56 28.192C168.248 28.192 168.848 28.088 169.36 27.88C169.888 27.672 170.368 27.36 170.8 26.944L172.792 29.104C172.2 29.776 171.456 30.296 170.56 30.664C169.664 31.016 168.632 31.192 167.464 31.192Z" fill="#5B7BA5"/>
</svg>
